<mxfile host="app.diagrams.net" modified="2020-11-22T14:52:59.668Z" agent="5.0 (Windows NT 10.0; Win64; x64) AppleWebKit/537.36 (KHTML, like Gecko) Chrome/87.0.4280.66 Safari/537.36 Edg/87.0.664.41" etag="jxxvf5gXkhfMX5V5e6RY" version="13.9.2" type="github">
  <diagram id="S9ceoyBOBp-LiY6cDrLX" name="Page-1">
    <mxGraphModel dx="786" dy="708" grid="1" gridSize="10" guides="1" tooltips="1" connect="1" arrows="1" fold="1" page="1" pageScale="1" pageWidth="827" pageHeight="1169" math="0" shadow="0">
      <root>
        <mxCell id="0" />
        <mxCell id="1" parent="0" />
        <mxCell id="QM-Ya2pY4bfz0PaY0hQm-1" value="pets" style="shape=table;startSize=30;container=1;collapsible=1;childLayout=tableLayout;fixedRows=1;rowLines=0;fontStyle=1;align=center;resizeLast=1;" vertex="1" parent="1">
          <mxGeometry x="40" y="360" width="200" height="250" as="geometry" />
        </mxCell>
        <mxCell id="QM-Ya2pY4bfz0PaY0hQm-2" value="" style="shape=partialRectangle;collapsible=0;dropTarget=0;pointerEvents=0;fillColor=#ffe6cc;top=0;left=0;bottom=1;right=0;points=[[0,0.5],[1,0.5]];portConstraint=eastwest;strokeColor=#d79b00;" vertex="1" parent="QM-Ya2pY4bfz0PaY0hQm-1">
          <mxGeometry y="30" width="200" height="30" as="geometry" />
        </mxCell>
        <mxCell id="QM-Ya2pY4bfz0PaY0hQm-3" value="PK" style="shape=partialRectangle;connectable=0;fillColor=none;top=0;left=0;bottom=0;right=0;fontStyle=1;overflow=hidden;" vertex="1" parent="QM-Ya2pY4bfz0PaY0hQm-2">
          <mxGeometry width="30" height="30" as="geometry" />
        </mxCell>
        <mxCell id="QM-Ya2pY4bfz0PaY0hQm-4" value="petId (int)" style="shape=partialRectangle;connectable=0;fillColor=none;top=0;left=0;bottom=0;right=0;align=left;spacingLeft=6;fontStyle=5;overflow=hidden;" vertex="1" parent="QM-Ya2pY4bfz0PaY0hQm-2">
          <mxGeometry x="30" width="170" height="30" as="geometry" />
        </mxCell>
        <mxCell id="QM-Ya2pY4bfz0PaY0hQm-5" value="" style="shape=partialRectangle;collapsible=0;dropTarget=0;pointerEvents=0;fillColor=none;top=0;left=0;bottom=0;right=0;points=[[0,0.5],[1,0.5]];portConstraint=eastwest;" vertex="1" parent="QM-Ya2pY4bfz0PaY0hQm-1">
          <mxGeometry y="60" width="200" height="30" as="geometry" />
        </mxCell>
        <mxCell id="QM-Ya2pY4bfz0PaY0hQm-6" value="" style="shape=partialRectangle;connectable=0;fillColor=none;top=0;left=0;bottom=0;right=0;editable=1;overflow=hidden;" vertex="1" parent="QM-Ya2pY4bfz0PaY0hQm-5">
          <mxGeometry width="30" height="30" as="geometry" />
        </mxCell>
        <mxCell id="QM-Ya2pY4bfz0PaY0hQm-7" value="name (varchar)" style="shape=partialRectangle;connectable=0;fillColor=none;top=0;left=0;bottom=0;right=0;align=left;spacingLeft=6;overflow=hidden;" vertex="1" parent="QM-Ya2pY4bfz0PaY0hQm-5">
          <mxGeometry x="30" width="170" height="30" as="geometry" />
        </mxCell>
        <mxCell id="QM-Ya2pY4bfz0PaY0hQm-8" value="" style="shape=partialRectangle;collapsible=0;dropTarget=0;pointerEvents=0;fillColor=none;top=0;left=0;bottom=0;right=0;points=[[0,0.5],[1,0.5]];portConstraint=eastwest;" vertex="1" parent="QM-Ya2pY4bfz0PaY0hQm-1">
          <mxGeometry y="90" width="200" height="30" as="geometry" />
        </mxCell>
        <mxCell id="QM-Ya2pY4bfz0PaY0hQm-9" value="" style="shape=partialRectangle;connectable=0;fillColor=none;top=0;left=0;bottom=0;right=0;editable=1;overflow=hidden;" vertex="1" parent="QM-Ya2pY4bfz0PaY0hQm-8">
          <mxGeometry width="30" height="30" as="geometry" />
        </mxCell>
        <mxCell id="QM-Ya2pY4bfz0PaY0hQm-10" value="age (int)" style="shape=partialRectangle;connectable=0;fillColor=none;top=0;left=0;bottom=0;right=0;align=left;spacingLeft=6;overflow=hidden;" vertex="1" parent="QM-Ya2pY4bfz0PaY0hQm-8">
          <mxGeometry x="30" width="170" height="30" as="geometry" />
        </mxCell>
        <mxCell id="QM-Ya2pY4bfz0PaY0hQm-11" value="" style="shape=partialRectangle;collapsible=0;dropTarget=0;pointerEvents=0;fillColor=none;top=0;left=0;bottom=0;right=0;points=[[0,0.5],[1,0.5]];portConstraint=eastwest;" vertex="1" parent="QM-Ya2pY4bfz0PaY0hQm-1">
          <mxGeometry y="120" width="200" height="30" as="geometry" />
        </mxCell>
        <mxCell id="QM-Ya2pY4bfz0PaY0hQm-12" value="" style="shape=partialRectangle;connectable=0;fillColor=none;top=0;left=0;bottom=0;right=0;editable=1;overflow=hidden;" vertex="1" parent="QM-Ya2pY4bfz0PaY0hQm-11">
          <mxGeometry width="30" height="30" as="geometry" />
        </mxCell>
        <mxCell id="QM-Ya2pY4bfz0PaY0hQm-13" value="image (varchar)" style="shape=partialRectangle;connectable=0;fillColor=none;top=0;left=0;bottom=0;right=0;align=left;spacingLeft=6;overflow=hidden;" vertex="1" parent="QM-Ya2pY4bfz0PaY0hQm-11">
          <mxGeometry x="30" width="170" height="30" as="geometry" />
        </mxCell>
        <mxCell id="QM-Ya2pY4bfz0PaY0hQm-27" value="" style="shape=partialRectangle;collapsible=0;dropTarget=0;pointerEvents=0;fillColor=none;top=0;left=0;bottom=0;right=0;points=[[0,0.5],[1,0.5]];portConstraint=eastwest;" vertex="1" parent="QM-Ya2pY4bfz0PaY0hQm-1">
          <mxGeometry y="150" width="200" height="30" as="geometry" />
        </mxCell>
        <mxCell id="QM-Ya2pY4bfz0PaY0hQm-28" value="" style="shape=partialRectangle;connectable=0;fillColor=none;top=0;left=0;bottom=0;right=0;editable=1;overflow=hidden;" vertex="1" parent="QM-Ya2pY4bfz0PaY0hQm-27">
          <mxGeometry width="30" height="30" as="geometry" />
        </mxCell>
        <mxCell id="QM-Ya2pY4bfz0PaY0hQm-29" value="description (varchar)" style="shape=partialRectangle;connectable=0;fillColor=none;top=0;left=0;bottom=0;right=0;align=left;spacingLeft=6;overflow=hidden;" vertex="1" parent="QM-Ya2pY4bfz0PaY0hQm-27">
          <mxGeometry x="30" width="170" height="30" as="geometry" />
        </mxCell>
        <mxCell id="QM-Ya2pY4bfz0PaY0hQm-30" value="" style="shape=partialRectangle;collapsible=0;dropTarget=0;pointerEvents=0;fillColor=none;top=0;left=0;bottom=0;right=0;points=[[0,0.5],[1,0.5]];portConstraint=eastwest;" vertex="1" parent="QM-Ya2pY4bfz0PaY0hQm-1">
          <mxGeometry y="180" width="200" height="30" as="geometry" />
        </mxCell>
        <mxCell id="QM-Ya2pY4bfz0PaY0hQm-31" value="" style="shape=partialRectangle;connectable=0;fillColor=none;top=0;left=0;bottom=0;right=0;editable=1;overflow=hidden;" vertex="1" parent="QM-Ya2pY4bfz0PaY0hQm-30">
          <mxGeometry width="30" height="30" as="geometry" />
        </mxCell>
        <mxCell id="QM-Ya2pY4bfz0PaY0hQm-32" value="hobbies (varchar)" style="shape=partialRectangle;connectable=0;fillColor=none;top=0;left=0;bottom=0;right=0;align=left;spacingLeft=6;overflow=hidden;" vertex="1" parent="QM-Ya2pY4bfz0PaY0hQm-30">
          <mxGeometry x="30" width="170" height="30" as="geometry" />
        </mxCell>
        <mxCell id="QM-Ya2pY4bfz0PaY0hQm-33" value="" style="shape=partialRectangle;collapsible=0;dropTarget=0;pointerEvents=0;fillColor=#d5e8d4;top=0;left=0;bottom=0;right=0;points=[[0,0.5],[1,0.5]];portConstraint=eastwest;strokeColor=#82b366;" vertex="1" parent="QM-Ya2pY4bfz0PaY0hQm-1">
          <mxGeometry y="210" width="200" height="30" as="geometry" />
        </mxCell>
        <mxCell id="QM-Ya2pY4bfz0PaY0hQm-34" value="FK" style="shape=partialRectangle;connectable=0;fillColor=none;top=0;left=0;bottom=0;right=0;editable=1;overflow=hidden;" vertex="1" parent="QM-Ya2pY4bfz0PaY0hQm-33">
          <mxGeometry width="30" height="30" as="geometry" />
        </mxCell>
        <mxCell id="QM-Ya2pY4bfz0PaY0hQm-35" value="location (int)" style="shape=partialRectangle;connectable=0;fillColor=none;top=0;left=0;bottom=0;right=0;align=left;spacingLeft=6;overflow=hidden;" vertex="1" parent="QM-Ya2pY4bfz0PaY0hQm-33">
          <mxGeometry x="30" width="170" height="30" as="geometry" />
        </mxCell>
        <mxCell id="QM-Ya2pY4bfz0PaY0hQm-36" value="locations" style="shape=table;startSize=30;container=1;collapsible=1;childLayout=tableLayout;fixedRows=1;rowLines=0;fontStyle=1;align=center;resizeLast=1;" vertex="1" parent="1">
          <mxGeometry x="324" y="360" width="196" height="190" as="geometry" />
        </mxCell>
        <mxCell id="QM-Ya2pY4bfz0PaY0hQm-37" value="" style="shape=partialRectangle;collapsible=0;dropTarget=0;pointerEvents=0;fillColor=#ffe6cc;top=0;left=0;bottom=1;right=0;points=[[0,0.5],[1,0.5]];portConstraint=eastwest;strokeColor=#d79b00;" vertex="1" parent="QM-Ya2pY4bfz0PaY0hQm-36">
          <mxGeometry y="30" width="196" height="30" as="geometry" />
        </mxCell>
        <mxCell id="QM-Ya2pY4bfz0PaY0hQm-38" value="PK" style="shape=partialRectangle;connectable=0;fillColor=none;top=0;left=0;bottom=0;right=0;fontStyle=1;overflow=hidden;" vertex="1" parent="QM-Ya2pY4bfz0PaY0hQm-37">
          <mxGeometry width="30" height="30" as="geometry" />
        </mxCell>
        <mxCell id="QM-Ya2pY4bfz0PaY0hQm-39" value="locationId (int)" style="shape=partialRectangle;connectable=0;fillColor=none;top=0;left=0;bottom=0;right=0;align=left;spacingLeft=6;fontStyle=5;overflow=hidden;" vertex="1" parent="QM-Ya2pY4bfz0PaY0hQm-37">
          <mxGeometry x="30" width="166" height="30" as="geometry" />
        </mxCell>
        <mxCell id="QM-Ya2pY4bfz0PaY0hQm-40" value="" style="shape=partialRectangle;collapsible=0;dropTarget=0;pointerEvents=0;fillColor=none;top=0;left=0;bottom=0;right=0;points=[[0,0.5],[1,0.5]];portConstraint=eastwest;" vertex="1" parent="QM-Ya2pY4bfz0PaY0hQm-36">
          <mxGeometry y="60" width="196" height="30" as="geometry" />
        </mxCell>
        <mxCell id="QM-Ya2pY4bfz0PaY0hQm-41" value="" style="shape=partialRectangle;connectable=0;fillColor=none;top=0;left=0;bottom=0;right=0;editable=1;overflow=hidden;" vertex="1" parent="QM-Ya2pY4bfz0PaY0hQm-40">
          <mxGeometry width="30" height="30" as="geometry" />
        </mxCell>
        <mxCell id="QM-Ya2pY4bfz0PaY0hQm-42" value="street (varchar" style="shape=partialRectangle;connectable=0;fillColor=none;top=0;left=0;bottom=0;right=0;align=left;spacingLeft=6;overflow=hidden;" vertex="1" parent="QM-Ya2pY4bfz0PaY0hQm-40">
          <mxGeometry x="30" width="166" height="30" as="geometry" />
        </mxCell>
        <mxCell id="QM-Ya2pY4bfz0PaY0hQm-43" value="" style="shape=partialRectangle;collapsible=0;dropTarget=0;pointerEvents=0;fillColor=none;top=0;left=0;bottom=0;right=0;points=[[0,0.5],[1,0.5]];portConstraint=eastwest;" vertex="1" parent="QM-Ya2pY4bfz0PaY0hQm-36">
          <mxGeometry y="90" width="196" height="30" as="geometry" />
        </mxCell>
        <mxCell id="QM-Ya2pY4bfz0PaY0hQm-44" value="" style="shape=partialRectangle;connectable=0;fillColor=none;top=0;left=0;bottom=0;right=0;editable=1;overflow=hidden;" vertex="1" parent="QM-Ya2pY4bfz0PaY0hQm-43">
          <mxGeometry width="30" height="30" as="geometry" />
        </mxCell>
        <mxCell id="QM-Ya2pY4bfz0PaY0hQm-45" value="postalCode (varchar)" style="shape=partialRectangle;connectable=0;fillColor=none;top=0;left=0;bottom=0;right=0;align=left;spacingLeft=6;overflow=hidden;" vertex="1" parent="QM-Ya2pY4bfz0PaY0hQm-43">
          <mxGeometry x="30" width="166" height="30" as="geometry" />
        </mxCell>
        <mxCell id="QM-Ya2pY4bfz0PaY0hQm-46" value="" style="shape=partialRectangle;collapsible=0;dropTarget=0;pointerEvents=0;fillColor=none;top=0;left=0;bottom=0;right=0;points=[[0,0.5],[1,0.5]];portConstraint=eastwest;" vertex="1" parent="QM-Ya2pY4bfz0PaY0hQm-36">
          <mxGeometry y="120" width="196" height="30" as="geometry" />
        </mxCell>
        <mxCell id="QM-Ya2pY4bfz0PaY0hQm-47" value="" style="shape=partialRectangle;connectable=0;fillColor=none;top=0;left=0;bottom=0;right=0;editable=1;overflow=hidden;" vertex="1" parent="QM-Ya2pY4bfz0PaY0hQm-46">
          <mxGeometry width="30" height="30" as="geometry" />
        </mxCell>
        <mxCell id="QM-Ya2pY4bfz0PaY0hQm-48" value="town (varchar)" style="shape=partialRectangle;connectable=0;fillColor=none;top=0;left=0;bottom=0;right=0;align=left;spacingLeft=6;overflow=hidden;" vertex="1" parent="QM-Ya2pY4bfz0PaY0hQm-46">
          <mxGeometry x="30" width="166" height="30" as="geometry" />
        </mxCell>
        <mxCell id="QM-Ya2pY4bfz0PaY0hQm-49" value="" style="shape=partialRectangle;collapsible=0;dropTarget=0;pointerEvents=0;fillColor=#d5e8d4;top=0;left=0;bottom=0;right=0;points=[[0,0.5],[1,0.5]];portConstraint=eastwest;strokeColor=#82b366;" vertex="1" parent="QM-Ya2pY4bfz0PaY0hQm-36">
          <mxGeometry y="150" width="196" height="30" as="geometry" />
        </mxCell>
        <mxCell id="QM-Ya2pY4bfz0PaY0hQm-50" value="FK" style="shape=partialRectangle;connectable=0;fillColor=none;top=0;left=0;bottom=0;right=0;editable=1;overflow=hidden;" vertex="1" parent="QM-Ya2pY4bfz0PaY0hQm-49">
          <mxGeometry width="30" height="30" as="geometry" />
        </mxCell>
        <mxCell id="QM-Ya2pY4bfz0PaY0hQm-51" value="country (int)" style="shape=partialRectangle;connectable=0;fillColor=none;top=0;left=0;bottom=0;right=0;align=left;spacingLeft=6;overflow=hidden;" vertex="1" parent="QM-Ya2pY4bfz0PaY0hQm-49">
          <mxGeometry x="30" width="166" height="30" as="geometry" />
        </mxCell>
        <mxCell id="QM-Ya2pY4bfz0PaY0hQm-52" value="countries" style="shape=table;startSize=30;container=1;collapsible=1;childLayout=tableLayout;fixedRows=1;rowLines=0;fontStyle=1;align=center;resizeLast=1;" vertex="1" parent="1">
          <mxGeometry x="590" y="360" width="180" height="100" as="geometry" />
        </mxCell>
        <mxCell id="QM-Ya2pY4bfz0PaY0hQm-53" value="" style="shape=partialRectangle;collapsible=0;dropTarget=0;pointerEvents=0;fillColor=#ffe6cc;top=0;left=0;bottom=1;right=0;points=[[0,0.5],[1,0.5]];portConstraint=eastwest;strokeColor=#d79b00;" vertex="1" parent="QM-Ya2pY4bfz0PaY0hQm-52">
          <mxGeometry y="30" width="180" height="30" as="geometry" />
        </mxCell>
        <mxCell id="QM-Ya2pY4bfz0PaY0hQm-54" value="PK" style="shape=partialRectangle;connectable=0;fillColor=none;top=0;left=0;bottom=0;right=0;fontStyle=1;overflow=hidden;" vertex="1" parent="QM-Ya2pY4bfz0PaY0hQm-53">
          <mxGeometry width="30" height="30" as="geometry" />
        </mxCell>
        <mxCell id="QM-Ya2pY4bfz0PaY0hQm-55" value="countryId" style="shape=partialRectangle;connectable=0;fillColor=none;top=0;left=0;bottom=0;right=0;align=left;spacingLeft=6;fontStyle=5;overflow=hidden;" vertex="1" parent="QM-Ya2pY4bfz0PaY0hQm-53">
          <mxGeometry x="30" width="150" height="30" as="geometry" />
        </mxCell>
        <mxCell id="QM-Ya2pY4bfz0PaY0hQm-56" value="" style="shape=partialRectangle;collapsible=0;dropTarget=0;pointerEvents=0;fillColor=none;top=0;left=0;bottom=0;right=0;points=[[0,0.5],[1,0.5]];portConstraint=eastwest;" vertex="1" parent="QM-Ya2pY4bfz0PaY0hQm-52">
          <mxGeometry y="60" width="180" height="30" as="geometry" />
        </mxCell>
        <mxCell id="QM-Ya2pY4bfz0PaY0hQm-57" value="" style="shape=partialRectangle;connectable=0;fillColor=none;top=0;left=0;bottom=0;right=0;editable=1;overflow=hidden;" vertex="1" parent="QM-Ya2pY4bfz0PaY0hQm-56">
          <mxGeometry width="30" height="30" as="geometry" />
        </mxCell>
        <mxCell id="QM-Ya2pY4bfz0PaY0hQm-58" value="CountryName (varchar)" style="shape=partialRectangle;connectable=0;fillColor=none;top=0;left=0;bottom=0;right=0;align=left;spacingLeft=6;overflow=hidden;" vertex="1" parent="QM-Ya2pY4bfz0PaY0hQm-56">
          <mxGeometry x="30" width="150" height="30" as="geometry" />
        </mxCell>
        <mxCell id="QM-Ya2pY4bfz0PaY0hQm-67" style="edgeStyle=orthogonalEdgeStyle;rounded=0;orthogonalLoop=1;jettySize=auto;html=1;entryX=0;entryY=0.5;entryDx=0;entryDy=0;endArrow=ERmany;endFill=0;startArrow=ERone;startFill=0;" edge="1" parent="1" source="QM-Ya2pY4bfz0PaY0hQm-33" target="QM-Ya2pY4bfz0PaY0hQm-37">
          <mxGeometry relative="1" as="geometry" />
        </mxCell>
        <mxCell id="QM-Ya2pY4bfz0PaY0hQm-68" style="edgeStyle=orthogonalEdgeStyle;rounded=0;orthogonalLoop=1;jettySize=auto;html=1;entryX=0;entryY=0.5;entryDx=0;entryDy=0;startArrow=ERone;startFill=0;endArrow=ERmany;endFill=0;" edge="1" parent="1" source="QM-Ya2pY4bfz0PaY0hQm-49" target="QM-Ya2pY4bfz0PaY0hQm-53">
          <mxGeometry relative="1" as="geometry" />
        </mxCell>
        <mxCell id="QM-Ya2pY4bfz0PaY0hQm-69" value="users" style="shape=table;startSize=30;container=1;collapsible=1;childLayout=tableLayout;fixedRows=1;rowLines=0;fontStyle=1;align=center;resizeLast=1;" vertex="1" parent="1">
          <mxGeometry x="40" y="680" width="200" height="280" as="geometry" />
        </mxCell>
        <mxCell id="QM-Ya2pY4bfz0PaY0hQm-70" value="" style="shape=partialRectangle;collapsible=0;dropTarget=0;pointerEvents=0;fillColor=#ffe6cc;top=0;left=0;bottom=1;right=0;points=[[0,0.5],[1,0.5]];portConstraint=eastwest;strokeColor=#d79b00;" vertex="1" parent="QM-Ya2pY4bfz0PaY0hQm-69">
          <mxGeometry y="30" width="200" height="30" as="geometry" />
        </mxCell>
        <mxCell id="QM-Ya2pY4bfz0PaY0hQm-71" value="PK" style="shape=partialRectangle;connectable=0;fillColor=none;top=0;left=0;bottom=0;right=0;fontStyle=1;overflow=hidden;" vertex="1" parent="QM-Ya2pY4bfz0PaY0hQm-70">
          <mxGeometry width="30" height="30" as="geometry" />
        </mxCell>
        <mxCell id="QM-Ya2pY4bfz0PaY0hQm-72" value="userId (int)" style="shape=partialRectangle;connectable=0;fillColor=none;top=0;left=0;bottom=0;right=0;align=left;spacingLeft=6;fontStyle=5;overflow=hidden;" vertex="1" parent="QM-Ya2pY4bfz0PaY0hQm-70">
          <mxGeometry x="30" width="170" height="30" as="geometry" />
        </mxCell>
        <mxCell id="QM-Ya2pY4bfz0PaY0hQm-73" value="" style="shape=partialRectangle;collapsible=0;dropTarget=0;pointerEvents=0;fillColor=none;top=0;left=0;bottom=0;right=0;points=[[0,0.5],[1,0.5]];portConstraint=eastwest;" vertex="1" parent="QM-Ya2pY4bfz0PaY0hQm-69">
          <mxGeometry y="60" width="200" height="30" as="geometry" />
        </mxCell>
        <mxCell id="QM-Ya2pY4bfz0PaY0hQm-74" value="" style="shape=partialRectangle;connectable=0;fillColor=none;top=0;left=0;bottom=0;right=0;editable=1;overflow=hidden;" vertex="1" parent="QM-Ya2pY4bfz0PaY0hQm-73">
          <mxGeometry width="30" height="30" as="geometry" />
        </mxCell>
        <mxCell id="QM-Ya2pY4bfz0PaY0hQm-75" value="userName (varchar)" style="shape=partialRectangle;connectable=0;fillColor=none;top=0;left=0;bottom=0;right=0;align=left;spacingLeft=6;overflow=hidden;" vertex="1" parent="QM-Ya2pY4bfz0PaY0hQm-73">
          <mxGeometry x="30" width="170" height="30" as="geometry" />
        </mxCell>
        <mxCell id="QM-Ya2pY4bfz0PaY0hQm-76" value="" style="shape=partialRectangle;collapsible=0;dropTarget=0;pointerEvents=0;fillColor=none;top=0;left=0;bottom=0;right=0;points=[[0,0.5],[1,0.5]];portConstraint=eastwest;" vertex="1" parent="QM-Ya2pY4bfz0PaY0hQm-69">
          <mxGeometry y="90" width="200" height="30" as="geometry" />
        </mxCell>
        <mxCell id="QM-Ya2pY4bfz0PaY0hQm-77" value="" style="shape=partialRectangle;connectable=0;fillColor=none;top=0;left=0;bottom=0;right=0;editable=1;overflow=hidden;" vertex="1" parent="QM-Ya2pY4bfz0PaY0hQm-76">
          <mxGeometry width="30" height="30" as="geometry" />
        </mxCell>
        <mxCell id="QM-Ya2pY4bfz0PaY0hQm-78" value="userEmail (varchar)" style="shape=partialRectangle;connectable=0;fillColor=none;top=0;left=0;bottom=0;right=0;align=left;spacingLeft=6;overflow=hidden;" vertex="1" parent="QM-Ya2pY4bfz0PaY0hQm-76">
          <mxGeometry x="30" width="170" height="30" as="geometry" />
        </mxCell>
        <mxCell id="QM-Ya2pY4bfz0PaY0hQm-79" value="" style="shape=partialRectangle;collapsible=0;dropTarget=0;pointerEvents=0;fillColor=none;top=0;left=0;bottom=0;right=0;points=[[0,0.5],[1,0.5]];portConstraint=eastwest;" vertex="1" parent="QM-Ya2pY4bfz0PaY0hQm-69">
          <mxGeometry y="120" width="200" height="30" as="geometry" />
        </mxCell>
        <mxCell id="QM-Ya2pY4bfz0PaY0hQm-80" value="" style="shape=partialRectangle;connectable=0;fillColor=none;top=0;left=0;bottom=0;right=0;editable=1;overflow=hidden;" vertex="1" parent="QM-Ya2pY4bfz0PaY0hQm-79">
          <mxGeometry width="30" height="30" as="geometry" />
        </mxCell>
        <mxCell id="QM-Ya2pY4bfz0PaY0hQm-81" value="userPassword (varchar)" style="shape=partialRectangle;connectable=0;fillColor=none;top=0;left=0;bottom=0;right=0;align=left;spacingLeft=6;overflow=hidden;" vertex="1" parent="QM-Ya2pY4bfz0PaY0hQm-79">
          <mxGeometry x="30" width="170" height="30" as="geometry" />
        </mxCell>
        <mxCell id="QM-Ya2pY4bfz0PaY0hQm-82" value="" style="shape=partialRectangle;collapsible=0;dropTarget=0;pointerEvents=0;fillColor=none;top=0;left=0;bottom=0;right=0;points=[[0,0.5],[1,0.5]];portConstraint=eastwest;" vertex="1" parent="QM-Ya2pY4bfz0PaY0hQm-69">
          <mxGeometry y="150" width="200" height="30" as="geometry" />
        </mxCell>
        <mxCell id="QM-Ya2pY4bfz0PaY0hQm-83" value="" style="shape=partialRectangle;connectable=0;fillColor=none;top=0;left=0;bottom=0;right=0;editable=1;overflow=hidden;" vertex="1" parent="QM-Ya2pY4bfz0PaY0hQm-82">
          <mxGeometry width="30" height="30" as="geometry" />
        </mxCell>
        <mxCell id="QM-Ya2pY4bfz0PaY0hQm-84" value="userType (enum)" style="shape=partialRectangle;connectable=0;fillColor=none;top=0;left=0;bottom=0;right=0;align=left;spacingLeft=6;overflow=hidden;" vertex="1" parent="QM-Ya2pY4bfz0PaY0hQm-82">
          <mxGeometry x="30" width="170" height="30" as="geometry" />
        </mxCell>
        <mxCell id="QM-Ya2pY4bfz0PaY0hQm-85" value="" style="shape=partialRectangle;collapsible=0;dropTarget=0;pointerEvents=0;fillColor=none;top=0;left=0;bottom=0;right=0;points=[[0,0.5],[1,0.5]];portConstraint=eastwest;" vertex="1" parent="QM-Ya2pY4bfz0PaY0hQm-69">
          <mxGeometry y="180" width="200" height="30" as="geometry" />
        </mxCell>
        <mxCell id="QM-Ya2pY4bfz0PaY0hQm-86" value="" style="shape=partialRectangle;connectable=0;fillColor=none;top=0;left=0;bottom=0;right=0;editable=1;overflow=hidden;" vertex="1" parent="QM-Ya2pY4bfz0PaY0hQm-85">
          <mxGeometry width="30" height="30" as="geometry" />
        </mxCell>
        <mxCell id="QM-Ya2pY4bfz0PaY0hQm-87" value="- user" style="shape=partialRectangle;connectable=0;fillColor=none;top=0;left=0;bottom=0;right=0;align=left;spacingLeft=6;overflow=hidden;" vertex="1" parent="QM-Ya2pY4bfz0PaY0hQm-85">
          <mxGeometry x="30" width="170" height="30" as="geometry" />
        </mxCell>
        <mxCell id="QM-Ya2pY4bfz0PaY0hQm-88" value="" style="shape=partialRectangle;collapsible=0;dropTarget=0;pointerEvents=0;fillColor=none;top=0;left=0;bottom=0;right=0;points=[[0,0.5],[1,0.5]];portConstraint=eastwest;" vertex="1" parent="QM-Ya2pY4bfz0PaY0hQm-69">
          <mxGeometry y="210" width="200" height="30" as="geometry" />
        </mxCell>
        <mxCell id="QM-Ya2pY4bfz0PaY0hQm-89" value="" style="shape=partialRectangle;connectable=0;fillColor=none;top=0;left=0;bottom=0;right=0;editable=1;overflow=hidden;" vertex="1" parent="QM-Ya2pY4bfz0PaY0hQm-88">
          <mxGeometry width="30" height="30" as="geometry" />
        </mxCell>
        <mxCell id="QM-Ya2pY4bfz0PaY0hQm-90" value="- admin" style="shape=partialRectangle;connectable=0;fillColor=none;top=0;left=0;bottom=0;right=0;align=left;spacingLeft=6;overflow=hidden;" vertex="1" parent="QM-Ya2pY4bfz0PaY0hQm-88">
          <mxGeometry x="30" width="170" height="30" as="geometry" />
        </mxCell>
        <mxCell id="QM-Ya2pY4bfz0PaY0hQm-91" value="" style="shape=partialRectangle;collapsible=0;dropTarget=0;pointerEvents=0;fillColor=none;top=0;left=0;bottom=0;right=0;points=[[0,0.5],[1,0.5]];portConstraint=eastwest;" vertex="1" parent="QM-Ya2pY4bfz0PaY0hQm-69">
          <mxGeometry y="240" width="200" height="30" as="geometry" />
        </mxCell>
        <mxCell id="QM-Ya2pY4bfz0PaY0hQm-92" value="" style="shape=partialRectangle;connectable=0;fillColor=none;top=0;left=0;bottom=0;right=0;editable=1;overflow=hidden;" vertex="1" parent="QM-Ya2pY4bfz0PaY0hQm-91">
          <mxGeometry width="30" height="30" as="geometry" />
        </mxCell>
        <mxCell id="QM-Ya2pY4bfz0PaY0hQm-93" value="- superadmin" style="shape=partialRectangle;connectable=0;fillColor=none;top=0;left=0;bottom=0;right=0;align=left;spacingLeft=6;overflow=hidden;" vertex="1" parent="QM-Ya2pY4bfz0PaY0hQm-91">
          <mxGeometry x="30" width="170" height="30" as="geometry" />
        </mxCell>
      </root>
    </mxGraphModel>
  </diagram>
</mxfile>
